# xmcd
#
# Track frame offsets: 
#        150
#        55264
#        78721
#        86561
#        110513
#        112220
#        129372
#        156494
#        171581
#
# Disc length: 2464 seconds
#
# Revision: 14
# Processed by: cddbd v1.5.2PL0 Copyright (c) Steve Scherf et al.
# Submitted via: ExactAudioCopyFreeDBPlugin 1.0
#
DISCID=7f099e09
DTITLE=Lauryn Hill - MTV Unplugged (Disc2)
DYEAR=2002
DGENRE=R&B
TTITLE0=Interlude 5
TTITLE1=Mystery Of Iniquity
TTITLE2=Interlude 6
TTITLE3=I Get Out
TTITLE4=Interlude 7
TTITLE5=I Remember
TTITLE6=So Much Things To Say
TTITLE7=The Conquering Lion
TTITLE8=Outro
EXTD=
EXTT0=
EXTT1=
EXTT2=
EXTT3=
EXTT4=
EXTT5=
EXTT6=
EXTT7=
EXTT8=
PLAYORDER=
